<?xml version="1.0" ?><svg width="960px" height="960px" viewBox="0 0 960 960" style="enable-background:new 0 0 960 960;" version="1.1" xml:space="preserve" xmlns="http://www.w3.org/2000/svg" xmlns:xlink="http://www.w3.org/1999/xlink"><g class="st0" id="guide"/><g class="st0" id="sketch"/><g class="st0" id="stroke"><g class="st2"><path class="st3" d="M250.8,680.2c20-0.1,38.7-0.9,52.1-1.1l206-1.6c57.6-0.2,111.1-0.6,168.8-1.1c33-0.3,68-2.6,89.4-27.6    c18.7-21.9,23-51.5,21.8-80.3c-2.3-55.5-1.8-105.3-3.8-181.3c-1.1-41.1-3.3-80.9-63.2-90.3"/><path class="st3" d="M618.5,295.5c-13,0.1-28.8,0.3-48.9,0.4l-212.2,2c-46.5,0.4-80.4,0.9-125.4,1.5c-28.3,0.3-76.7-1.5-98.5,21.2    c-30.5,31.8-34.3,116.6-33.3,172.6c1.1,60.7-4.1,135.5,45.8,170.1c6.1,4.2,14,7.4,23.2,9.9"/><path class="st3" d="M785.5,406.5c22.1-0.7,46.5-1.4,68.6-2.1c3,43.6,2.7,87.2,5.8,130.8c-24.4,0.9-47.7,1.9-72,2.8"/></g><path class="st4" d="M735.5,237.5C593.9,372.8,287.4,603.2,145.8,738.5"/></g><g id="outline"><path class="st5" d="M141.8,669.4c-48-33.3-48.4-99-48.8-157c0-6.6-0.1-12.9-0.2-19.1c-1.1-63.1,4.1-145.2,35.4-177.9   c22.2-23.1,66.8-23.3,96.3-23.5c2.6,0,5.1,0,7.5-0.1c13.7-0.2,26.3-0.3,38.6-0.5c28-0.4,54.5-0.7,86.9-1l212.2-2   c20.1-0.1,35.9-0.3,48.9-0.4c0,0,0,0,0.1,0c4.1,0,7.5,3.3,7.5,7.4c0,4.1-3.3,7.5-7.4,7.6c-13,0.1-28.8,0.3-48.9,0.4l-212.2,2   c-32.4,0.3-58.8,0.6-86.8,1c-12.3,0.2-24.9,0.3-38.6,0.5c-2.4,0-4.9,0-7.6,0.1c-27,0.1-67.8,0.4-85.5,18.9   c-21.7,22.6-32.7,82-31.2,167.2c0.1,6.3,0.2,12.6,0.2,19.3c0.4,54.3,0.8,115.9,42.4,144.8c5,3.5,12,6.5,20.8,8.8   c4,1.1,6.4,5.2,5.3,9.2c-0.9,3.4-3.9,5.6-7.2,5.6c-0.6,0-1.3-0.1-1.9-0.3C156.7,677.5,148.4,674,141.8,669.4z M867.4,534.6   c0.1,2-0.5,4-1.9,5.5c-1.4,1.5-3.3,2.4-5.3,2.5c-12.3,0.5-24.3,0.9-36.4,1.4c-9.4,0.4-18.7,0.7-28.2,1.1c0.2,7.6,0.5,15.2,0.8,23   c1.5,37.2-6.2,65.1-23.6,85.5c-23.3,27.3-59.7,29.9-95.1,30.3c-61.2,0.5-113.3,0.9-168.8,1.1L303,686.6c-5.7,0.1-12.5,0.2-19.6,0.4   c-9.8,0.3-20.9,0.6-32.5,0.6c0,0,0,0-0.1,0c-4.1,0-7.5-3.3-7.5-7.5c0-4.1,3.3-7.5,7.5-7.5c11.4-0.1,22.4-0.4,32.2-0.6   c7.3-0.2,14.1-0.4,19.9-0.4l206-1.6c55.5-0.2,107.6-0.5,168.8-1.1c31.9-0.3,64.6-2.5,83.8-25c14.8-17.4,21.4-41.9,20-75.2   c-0.4-10.3-0.7-20.3-1-30.3c0-0.1,0-0.1,0-0.2c0-0.1,0-0.2,0-0.3c-0.5-19.9-0.8-39.8-1.1-61.8c-0.4-25.8-0.8-55-1.7-88.8   c-0.6-21.8-1.6-39.6-8.8-53.9c-8.1-16-23.3-25.3-48.1-29.2c-4.1-0.6-6.9-4.5-6.2-8.6c0.6-4.1,4.5-6.9,8.6-6.2   c67.2,10.6,68.5,58.8,69.5,97.5c0.1,4,0.2,7.9,0.3,11.8c8.7-0.3,17.6-0.5,26.6-0.8c11.7-0.4,23.3-0.7,34.4-1.1c4-0.1,7.4,3,7.7,7   c1.5,21.9,2.2,44.2,2.9,65.7C865.2,490.9,865.9,512.9,867.4,534.6z M851.9,527.9c-1.2-19.4-1.8-39-2.4-58   c-0.6-19-1.2-38.6-2.4-57.9c-8.9,0.3-18.1,0.6-27.2,0.8c-9,0.3-18,0.5-26.7,0.8c0.5,22.9,0.8,43.5,1,62.2   c0.3,19.1,0.5,36.8,0.9,54.2c9.4-0.4,18.7-0.7,28.1-1.1C832.7,528.7,842.2,528.3,851.9,527.9z M740.7,242.9c3-2.9,3.1-7.6,0.2-10.6   c-2.9-3-7.6-3.1-10.6-0.2C659.8,299.5,546,392.4,435.9,482.2c-110.3,90-224.3,183.1-295.3,250.9c-3,2.9-3.1,7.6-0.2,10.6   c1.5,1.5,3.4,2.3,5.4,2.3c1.9,0,3.7-0.7,5.2-2.1c70.6-67.4,184.4-160.3,294.4-250.1C555.7,403.8,669.7,310.7,740.7,242.9z"/></g><g class="st0" id="flat"><g class="st2"><path class="st8" d="M730.3,232C659.8,299.5,546,392.4,435.9,482.2c-110.3,90-224.3,183.1-295.3,250.9c-3,2.9-3.1,7.6-0.2,10.6    c1.5,1.5,3.4,2.3,5.4,2.3c1.9,0,3.7-0.7,5.2-2.1c70.6-67.4,184.4-160.3,294.4-250.1c110.3-90,224.3-183.1,295.3-250.9    c3-2.9,3.1-7.6,0.2-10.6C738.1,229.3,733.3,229.2,730.3,232z"/><path class="st7" d="M357.5,305.4l212.2-2c20.1-0.1,36-0.3,48.9-0.4c4.1,0,7.5-3.4,7.4-7.6c0-4.1-3.4-7.4-7.5-7.4c0,0,0,0-0.1,0    c-13,0.1-28.8,0.3-48.9,0.4l-212.2,2c-32.4,0.3-58.9,0.6-86.9,1c-12.3,0.2-24.9,0.3-38.6,0.5c-2.4,0-4.9,0-7.5,0.1    c-29.5,0.2-74.1,0.4-96.3,23.5C96.8,348,91.6,430.1,92.8,493.3c0.1,6.2,0.2,12.5,0.2,19.1c0.4,58,0.9,123.7,48.8,157    c6.6,4.6,14.9,8.1,25.5,11c0.6,0.2,1.3,0.3,1.9,0.3c3.3,0,6.3-2.2,7.2-5.6c1.1-4-1.3-8.1-5.3-9.2c-8.8-2.3-15.8-5.3-20.8-8.8    c-41.6-28.8-42-90.4-42.4-144.8c0-6.7-0.1-13-0.2-19.3c-1.5-85.3,9.5-144.6,31.2-167.2c17.8-18.5,58.5-18.7,85.5-18.9    c2.7,0,5.2,0,7.6-0.1c13.7-0.2,26.3-0.3,38.6-0.5C298.7,306,325.1,305.7,357.5,305.4z"/><path class="st7" d="M864.5,469.5c-0.7-21.5-1.4-43.7-2.9-65.7c-0.3-4-3.7-7.1-7.7-7c-11.1,0.4-22.8,0.7-34.4,1.1    c-8.9,0.3-17.9,0.5-26.6,0.8c-0.1-3.9-0.2-7.8-0.3-11.8c-1-38.7-2.3-86.9-69.5-97.5c-4.1-0.6-7.9,2.1-8.6,6.2    c-0.6,4.1,2.1,7.9,6.2,8.6c24.7,3.9,40,13.2,48.1,29.2c7.2,14.2,8.2,32.1,8.8,53.9c0.9,33.9,1.3,63.1,1.7,88.8    c0.3,21.9,0.6,41.8,1.1,61.8c0,0.1,0,0.2,0,0.3c0,0.1,0,0.1,0,0.2c0.3,10,0.6,20.1,1,30.3c1.3,33.2-5.2,57.8-20,75.2    c-19.2,22.5-51.9,24.7-83.8,25c-61.2,0.5-113.3,0.9-168.8,1.1l-206,1.6c-5.8,0.1-12.7,0.2-19.9,0.4c-9.7,0.3-20.8,0.6-32.2,0.6    c-4.1,0-7.5,3.4-7.5,7.5c0,4.1,3.4,7.5,7.5,7.5c0,0,0,0,0.1,0c11.6-0.1,22.7-0.4,32.5-0.6c7.2-0.2,14-0.4,19.6-0.4l205.9-1.6    c55.5-0.2,107.6-0.6,168.8-1.1c35.3-0.4,71.8-3,95.1-30.3c17.4-20.4,25.1-48.3,23.6-85.5c-0.3-7.8-0.6-15.4-0.8-23    c9.5-0.4,18.9-0.7,28.2-1.1c12-0.5,24.1-0.9,36.4-1.4c2-0.1,3.9-1,5.3-2.5c1.4-1.5,2-3.5,1.9-5.5    C865.9,512.9,865.2,490.9,864.5,469.5z M823.2,529c-9.3,0.4-18.6,0.7-28.1,1.1c-0.4-17.4-0.7-35-0.9-54.2    c-0.3-18.7-0.6-39.3-1-62.2c8.7-0.3,17.7-0.5,26.7-0.8c9.2-0.3,18.3-0.6,27.2-0.8c1.2,19.3,1.8,38.9,2.4,57.9    c0.6,19,1.2,38.5,2.4,58C842.2,528.3,832.7,528.7,823.2,529z"/></g></g><g class="st0" id="colored_x5F_line"><g class="st2"><path class="st9" d="M730.3,232C659.8,299.5,546,392.4,435.9,482.2c-110.3,90-224.3,183.1-295.3,250.9c-3,2.9-3.1,7.6-0.2,10.6    c1.5,1.5,3.4,2.3,5.4,2.3c1.9,0,3.7-0.7,5.2-2.1c70.6-67.4,184.4-160.3,294.4-250.1c110.3-90,224.3-183.1,295.3-250.9    c3-2.9,3.1-7.6,0.2-10.6C738.1,229.3,733.3,229.2,730.3,232z"/><path class="st5" d="M357.5,305.4l212.2-2c20.1-0.1,36-0.3,48.9-0.4c4.1,0,7.5-3.4,7.4-7.6c0-4.1-3.4-7.4-7.5-7.4c0,0,0,0-0.1,0    c-13,0.1-28.8,0.3-48.9,0.4l-212.2,2c-32.4,0.3-58.9,0.6-86.9,1c-12.3,0.2-24.9,0.3-38.6,0.5c-2.4,0-4.9,0-7.5,0.1    c-29.5,0.2-74.1,0.4-96.3,23.5C96.8,348,91.6,430.1,92.8,493.3c0.1,6.2,0.2,12.5,0.2,19.1c0.4,58,0.9,123.7,48.8,157    c6.6,4.6,14.9,8.1,25.5,11c0.6,0.2,1.3,0.3,1.9,0.3c3.3,0,6.3-2.2,7.2-5.6c1.1-4-1.3-8.1-5.3-9.2c-8.8-2.3-15.8-5.3-20.8-8.8    c-41.6-28.8-42-90.4-42.4-144.8c0-6.7-0.1-13-0.2-19.3c-1.5-85.3,9.5-144.6,31.2-167.2c17.8-18.5,58.5-18.7,85.5-18.9    c2.7,0,5.2,0,7.6-0.1c13.7-0.2,26.3-0.3,38.6-0.5C298.7,306,325.1,305.7,357.5,305.4z"/><path class="st5" d="M864.5,469.5c-0.7-21.5-1.4-43.7-2.9-65.7c-0.3-4-3.7-7.1-7.7-7c-11.1,0.4-22.8,0.7-34.4,1.1    c-8.9,0.3-17.9,0.5-26.6,0.8c-0.1-3.9-0.2-7.8-0.3-11.8c-1-38.7-2.3-86.9-69.5-97.5c-4.1-0.6-7.9,2.1-8.6,6.2    c-0.6,4.1,2.1,7.9,6.2,8.6c24.7,3.9,40,13.2,48.1,29.2c7.2,14.2,8.2,32.1,8.8,53.9c0.9,33.9,1.3,63.1,1.7,88.8    c0.3,21.9,0.6,41.8,1.1,61.8c0,0.1,0,0.2,0,0.3c0,0.1,0,0.1,0,0.2c0.3,10,0.6,20.1,1,30.3c1.3,33.2-5.2,57.8-20,75.2    c-19.2,22.5-51.9,24.7-83.8,25c-61.2,0.5-113.3,0.9-168.8,1.1l-206,1.6c-5.8,0.1-12.7,0.2-19.9,0.4c-9.7,0.3-20.8,0.6-32.2,0.6    c-4.1,0-7.5,3.4-7.5,7.5c0,4.1,3.4,7.5,7.5,7.5c0,0,0,0,0.1,0c11.6-0.1,22.7-0.4,32.5-0.6c7.2-0.2,14-0.4,19.6-0.4l205.9-1.6    c55.5-0.2,107.6-0.6,168.8-1.1c35.3-0.4,71.8-3,95.1-30.3c17.4-20.4,25.1-48.3,23.6-85.5c-0.3-7.8-0.6-15.4-0.8-23    c9.5-0.4,18.9-0.7,28.2-1.1c12-0.5,24.1-0.9,36.4-1.4c2-0.1,3.9-1,5.3-2.5c1.4-1.5,2-3.5,1.9-5.5    C865.9,512.9,865.2,490.9,864.5,469.5z M823.2,529c-9.3,0.4-18.6,0.7-28.1,1.1c-0.4-17.4-0.7-35-0.9-54.2    c-0.3-18.7-0.6-39.3-1-62.2c8.7-0.3,17.7-0.5,26.7-0.8c9.2-0.3,18.3-0.6,27.2-0.8c1.2,19.3,1.8,38.9,2.4,57.9    c0.6,19,1.2,38.5,2.4,58C842.2,528.3,832.7,528.7,823.2,529z"/></g></g></svg>